<?xml version="1.0" standalone="no"?>
<!DOCTYPE svg PUBLIC "-//W3C//DTD SVG 20010904//EN"
 "http://www.w3.org/TR/2001/REC-SVG-20010904/DTD/svg10.dtd">
<svg version="1.0" xmlns="http://www.w3.org/2000/svg"
 width="3000.000000pt" height="1141.000000pt" viewBox="0 0 3000.000000 1141.000000"
 preserveAspectRatio="xMidYMid meet">

<g transform="translate(0.000000,1141.000000) scale(0.100000,-0.100000)"
fill="#000000" stroke="none">
<path d="M3555 10248 c-33 -6 -62 -14 -65 -18 -3 -4 -28 -12 -56 -18 -79 -17
-244 -72 -244 -81 0 -5 -15 -14 -32 -20 -57 -21 -143 -65 -155 -81 -7 -8 -13
-11 -13 -7 0 4 -12 -4 -27 -18 -15 -14 -33 -25 -39 -25 -6 0 -29 -18 -50 -40
-22 -22 -43 -40 -49 -40 -14 0 -123 -117 -163 -175 -19 -27 -40 -54 -47 -60
-15 -13 -85 -144 -85 -161 0 -7 -6 -17 -13 -21 -11 -7 -29 -55 -56 -153 -22
-78 -33 -192 -29 -310 l3 -125 -42 0 c-24 0 -43 3 -43 8 0 4 -52 7 -115 7 -63
0 -115 -3 -115 -7 0 -5 -22 -6 -50 -5 -32 3 -50 0 -50 -7 0 -6 -12 -11 -27
-11 -66 -1 -353 -76 -353 -92 0 -5 -4 -6 -10 -3 -5 3 -10 2 -10 -3 0 -6 -11
-13 -25 -16 -40 -10 -155 -68 -155 -78 0 -5 -4 -6 -10 -3 -5 3 -10 2 -10 -3 0
-5 -25 -21 -54 -36 -30 -15 -62 -39 -71 -52 -8 -13 -21 -24 -28 -24 -6 0 -37
-22 -67 -49 -30 -27 -58 -47 -62 -44 -5 2 -8 -1 -8 -7 0 -15 -55 -70 -69 -70
-6 0 -11 -6 -11 -12 0 -7 -15 -29 -33 -48 -49 -52 -112 -141 -127 -178 -7 -18
-21 -37 -31 -43 -11 -5 -19 -15 -19 -22 0 -10 -20 -55 -61 -139 -5 -10 -9 -24
-9 -32 0 -8 -6 -19 -13 -23 -7 -4 -19 -35 -27 -68 -7 -33 -17 -68 -22 -78 -33
-66 -50 -438 -27 -589 12 -74 33 -164 50 -206 5 -13 9 -31 9 -41 0 -11 7 -21
15 -25 8 -3 15 -14 15 -24 0 -11 7 -25 15 -32 8 -7 15 -20 15 -29 0 -9 27 -52
60 -96 33 -44 60 -86 60 -92 0 -7 5 -13 11 -13 6 0 34 -22 61 -50 27 -27 52
-50 54 -50 12 0 64 -45 64 -55 0 -12 -39 -87 -49 -95 -6 -4 -25 -63 -74 -220
-16 -52 -15 -404 2 -462 12 -41 11 -49 -2 -63 -9 -8 -20 -15 -26 -15 -6 0 -11
-4 -11 -8 0 -5 -20 -23 -43 -40 -24 -17 -82 -70 -128 -118 -140 -145 -136
-140 -188 -229 -16 -27 -36 -57 -44 -65 -14 -15 -79 -154 -92 -197 -3 -13 -10
-23 -15 -23 -4 0 -15 -30 -25 -67 -9 -38 -21 -77 -25 -88 -5 -11 -13 -49 -20
-85 -6 -36 -16 -87 -21 -113 -13 -68 -11 -439 2 -511 22 -118 39 -192 55 -246
9 -30 19 -66 22 -80 3 -14 10 -29 17 -35 6 -5 20 -30 29 -55 28 -69 66 -140
103 -191 18 -26 33 -51 33 -56 0 -6 18 -28 40 -49 22 -22 40 -43 40 -49 1 -14
57 -75 70 -75 5 0 10 -6 10 -13 0 -7 19 -28 42 -47 23 -19 50 -43 60 -53 10
-9 22 -17 28 -17 5 0 10 -5 10 -10 0 -6 23 -24 50 -41 28 -17 50 -34 50 -37 0
-4 39 -27 87 -52 49 -25 90 -48 91 -53 2 -4 8 -5 13 -1 5 3 9 1 9 -5 0 -10 58
-34 161 -67 30 -10 56 -21 59 -25 3 -4 23 -9 45 -11 22 -2 42 -6 45 -10 10
-13 184 -30 257 -26 l73 5 1 -116 c0 -64 4 -138 9 -166 5 -27 13 -71 16 -98 4
-26 10 -47 15 -47 4 0 11 -17 14 -37 4 -21 10 -47 14 -58 5 -11 16 -43 25 -72
22 -67 127 -273 163 -321 15 -20 36 -53 47 -72 10 -19 28 -44 41 -55 12 -11
34 -38 47 -60 14 -22 37 -51 51 -65 15 -14 27 -29 27 -34 0 -16 280 -286 296
-286 8 0 17 -7 20 -15 4 -8 10 -12 15 -9 5 3 9 0 9 -7 0 -15 23 -33 78 -60 23
-11 42 -25 42 -30 0 -6 4 -8 9 -4 6 3 13 -1 18 -8 8 -15 151 -87 172 -87 6 0
11 -4 11 -9 0 -16 160 -65 283 -87 20 -3 37 -11 37 -16 0 -6 16 -8 35 -6 19 2
36 -1 38 -7 5 -15 709 -14 714 1 2 7 13 10 23 7 11 -3 20 -1 20 4 0 5 28 15
63 21 86 18 217 62 217 73 0 6 4 8 9 5 5 -4 11 -3 13 1 1 5 34 24 72 43 39 19
78 44 88 54 10 11 18 16 18 11 0 -5 7 1 16 13 8 12 20 22 25 22 14 0 69 55 69
69 0 5 12 19 26 30 25 20 104 141 104 160 0 5 6 16 13 23 22 23 59 115 82 203
9 33 20 68 25 77 6 10 10 81 10 158 l0 140 10015 0 10015 0 0 -140 c0 -77 4
-148 10 -158 5 -9 16 -44 25 -77 23 -88 60 -180 83 -203 6 -7 12 -18 12 -23 0
-19 79 -140 104 -160 14 -11 26 -25 26 -30 0 -14 55 -69 69 -69 5 0 17 -10 25
-22 9 -12 16 -18 16 -13 0 5 8 0 18 -11 10 -10 49 -35 88 -54 38 -19 71 -38
72 -43 2 -4 8 -5 13 -1 5 3 9 1 9 -5 0 -11 131 -55 218 -73 34 -6 62 -16 62
-21 0 -5 9 -7 20 -4 10 3 21 0 23 -7 5 -15 709 -16 714 -1 2 6 19 9 38 7 19
-2 35 0 35 6 0 5 17 13 38 16 122 22 282 71 282 87 0 5 5 9 11 9 21 0 164 72
172 87 5 7 12 11 18 8 5 -4 9 -2 9 4 0 5 19 19 43 30 54 27 77 45 77 60 0 7 4
10 9 7 5 -3 11 1 15 9 3 8 12 15 20 15 16 0 296 270 296 286 0 5 12 20 27 34
14 14 37 43 51 65 13 22 35 49 47 60 13 11 31 36 41 55 11 19 32 52 47 72 36
48 141 254 163 321 9 29 20 61 25 72 4 11 10 37 14 57 3 21 10 38 14 38 5 0
11 21 15 48 3 26 11 70 16 97 5 28 9 102 9 166 l1 116 73 -5 c73 -4 247 13
257 26 3 4 23 8 45 10 22 2 42 7 45 11 3 4 29 15 59 25 103 33 161 57 161 67
0 6 4 8 9 5 5 -4 11 -3 13 1 1 5 42 28 91 53 48 25 87 48 87 52 0 3 23 20 50
37 28 17 50 35 50 41 0 5 5 10 10 10 6 0 18 8 28 17 10 10 37 34 60 53 23 19
42 40 42 47 0 7 5 13 10 13 13 0 69 61 70 75 0 6 18 27 40 49 22 21 40 43 40
49 0 5 15 30 33 56 37 51 75 122 103 191 9 25 23 50 29 55 7 6 14 21 17 35 3
14 13 50 22 80 16 54 33 128 55 246 13 72 15 443 2 511 -5 26 -15 77 -21 113
-7 36 -15 74 -20 85 -4 11 -16 50 -25 88 -10 37 -21 67 -25 67 -5 0 -12 10
-15 23 -13 43 -78 182 -92 197 -8 8 -28 38 -44 65 -52 89 -48 84 -188 229 -46
48 -104 101 -128 118 -23 17 -43 35 -43 40 0 4 -5 8 -11 8 -6 0 -17 7 -26 15
-13 14 -14 22 -2 63 17 58 18 410 2 462 -49 157 -68 216 -74 220 -10 8 -49 83
-49 95 0 10 52 55 64 55 2 0 27 22 54 50 27 27 55 50 61 50 6 0 11 6 11 13 0
6 27 48 60 92 33 44 60 87 60 96 0 9 7 22 15 29 8 7 15 21 15 32 0 10 7 21 15
24 8 4 15 14 15 25 0 10 4 28 9 41 17 42 38 132 50 206 23 151 6 523 -27 589
-5 10 -15 45 -22 78 -8 33 -20 64 -27 68 -7 4 -13 15 -13 23 0 8 -4 22 -9 32
-41 84 -61 129 -61 139 0 7 -8 17 -19 22 -10 6 -24 25 -31 43 -15 37 -78 126
-127 178 -18 19 -33 41 -33 48 0 6 -5 12 -11 12 -14 0 -69 55 -69 70 0 6 -3 9
-8 7 -4 -3 -32 17 -62 44 -30 27 -61 49 -67 49 -7 0 -20 11 -28 24 -9 13 -41
37 -71 52 -29 15 -54 31 -54 36 0 5 -4 6 -10 3 -5 -3 -10 -2 -10 3 0 10 -115
68 -155 78 -14 3 -25 10 -25 16 0 5 -4 6 -10 3 -5 -3 -10 -2 -10 3 0 16 -287
91 -352 92 -16 0 -28 5 -28 11 0 7 -18 10 -50 7 -28 -1 -50 0 -50 5 0 4 -52 7
-115 7 -63 0 -115 -3 -115 -7 0 -5 -19 -8 -42 -8 l-43 0 3 125 c4 118 -7 232
-29 310 -27 98 -45 146 -56 153 -7 4 -13 14 -13 21 0 17 -70 148 -85 161 -7 6
-28 33 -47 60 -40 58 -149 175 -163 175 -6 0 -27 18 -49 40 -21 22 -44 40 -50
40 -6 0 -24 11 -39 25 -15 14 -27 22 -27 18 0 -4 -6 -1 -13 7 -12 16 -98 60
-154 81 -18 6 -33 15 -33 20 0 10 -195 73 -258 84 -23 4 -42 10 -42 14 0 5
-39 14 -87 20 -112 16 -624 12 -630 -5 -2 -6 -15 -9 -29 -6 -15 3 -29 0 -33
-5 -3 -6 -35 -20 -71 -31 -107 -34 -153 -52 -164 -67 -6 -7 -34 -26 -63 -41
-28 -15 -68 -42 -89 -61 -21 -18 -40 -33 -43 -33 -3 0 -19 -18 -35 -39 -16
-22 -34 -37 -40 -35 -6 2 -16 -6 -22 -18 -32 -64 -46 -87 -67 -110 -36 -39
-89 -172 -103 -255 -4 -24 -10 -43 -15 -43 -5 0 -9 -81 -9 -180 l0 -180
-10015 0 -10015 0 0 180 c0 99 -4 180 -9 180 -5 0 -11 19 -15 43 -14 83 -67
216 -103 255 -21 23 -35 46 -67 110 -6 12 -16 20 -22 18 -6 -2 -24 13 -40 35
-16 21 -32 39 -35 39 -3 0 -22 15 -43 33 -21 19 -61 46 -89 61 -29 15 -57 34
-63 41 -11 15 -57 33 -164 67 -36 11 -68 25 -71 31 -4 5 -18 8 -33 5 -14 -3
-27 0 -29 6 -5 15 -569 18 -652 4z m620 -218 c55 -13 134 -43 205 -78 102 -50
125 -66 202 -145 49 -48 88 -94 88 -102 0 -8 4 -15 9 -15 4 0 16 -21 26 -47
10 -27 23 -55 30 -63 7 -8 20 -45 29 -81 14 -57 16 -153 16 -757 0 -537 -3
-693 -12 -698 -7 -5 -80 -10 -162 -12 -306 -9 -479 55 -661 242 -69 72 -99
121 -149 246 -22 55 -26 81 -26 165 0 69 5 109 15 129 8 15 15 33 15 38 0 32
76 160 122 206 50 50 53 56 53 104 0 45 -3 53 -35 79 -19 16 -45 29 -58 29
-27 0 -96 -45 -132 -87 -50 -58 -90 -112 -90 -121 0 -6 -8 -27 -19 -49 -61
-126 -85 -231 -78 -353 7 -116 13 -153 38 -206 10 -22 19 -46 19 -52 0 -6 9
-27 20 -47 11 -20 20 -40 20 -46 0 -17 110 -161 159 -208 67 -64 153 -128 213
-158 29 -15 55 -28 58 -28 3 -1 19 -8 36 -17 35 -19 166 -54 239 -63 28 -4 57
-9 65 -11 21 -7 241 -7 248 0 3 3 27 6 54 6 l48 0 0 -777 c0 -907 11 -817
-123 -948 -66 -63 -103 -90 -178 -127 -114 -56 -158 -67 -267 -68 -104 0 -160
14 -240 59 -35 20 -74 42 -86 48 -27 15 -146 131 -146 143 0 4 -18 39 -40 76
-46 79 -48 94 -19 120 25 23 139 179 139 191 0 4 11 31 25 58 13 28 25 59 25
70 0 11 10 45 21 75 18 47 22 78 23 202 1 106 -3 151 -11 159 -7 7 -13 23 -13
36 0 12 -4 32 -9 45 -5 13 -15 43 -22 68 -27 94 -101 213 -197 314 -48 51 -57
56 -95 56 -44 0 -77 -20 -96 -57 -20 -40 -12 -69 32 -120 23 -26 47 -56 52
-65 6 -9 26 -40 46 -70 38 -56 89 -188 89 -232 0 -13 5 -28 10 -31 13 -8 13
-179 0 -219 -5 -17 -19 -63 -30 -103 -54 -177 -218 -343 -416 -419 -55 -21
-92 -28 -180 -32 -175 -7 -303 25 -424 105 -63 42 -190 167 -190 188 0 22 -64
55 -107 55 -87 0 -116 -93 -57 -183 36 -56 94 -118 166 -180 73 -61 249 -150
341 -172 95 -22 274 -30 364 -16 91 14 223 55 254 80 13 10 34 21 47 25 18 6
25 2 35 -21 33 -72 136 -209 192 -254 11 -9 36 -30 55 -47 19 -17 68 -48 110
-68 41 -21 87 -44 102 -51 45 -23 158 -43 240 -43 75 0 216 22 241 37 6 4 17
8 22 8 19 0 190 88 198 101 4 8 14 14 20 14 7 0 28 13 47 30 19 16 38 29 43
30 4 0 7 -673 7 -1495 0 -822 -2 -1495 -5 -1495 -2 0 -32 18 -65 40 -34 21
-86 46 -115 55 -30 8 -57 20 -60 25 -4 6 -11 8 -16 4 -5 -3 -15 -1 -22 4 -42
34 -382 42 -452 11 -16 -7 -34 -14 -40 -14 -10 -2 -18 -5 -99 -39 -91 -38
-217 -143 -296 -246 -19 -25 -37 -47 -40 -50 -8 -8 -47 -82 -79 -152 -50 -109
-77 -288 -63 -419 4 -36 14 -72 22 -80 25 -24 68 -49 85 -49 24 0 83 43 90 65
4 11 8 79 9 150 2 126 21 229 46 260 6 7 21 33 34 58 68 136 203 250 356 302
3 1 18 7 35 14 69 28 322 21 341 -10 3 -5 9 -7 13 -4 21 12 204 -94 252 -147
9 -10 20 -18 23 -18 4 0 15 -8 24 -17 15 -15 17 -59 20 -432 3 -363 1 -426
-14 -491 -9 -41 -23 -82 -29 -90 -7 -8 -20 -35 -29 -59 -10 -25 -26 -57 -37
-72 -10 -15 -19 -34 -19 -42 0 -8 -7 -17 -15 -21 -8 -3 -15 -11 -15 -18 0 -17
-111 -128 -128 -128 -7 0 -12 -4 -12 -10 0 -9 -215 -121 -228 -118 -4 1 -20
-5 -37 -12 -115 -50 -403 -79 -608 -62 -147 12 -390 54 -410 71 -7 5 -16 10
-22 11 -5 1 -25 8 -44 16 -18 8 -38 14 -43 14 -12 0 -127 58 -158 80 -14 10
-42 27 -62 39 -144 80 -400 339 -528 531 -34 52 -75 113 -89 135 -32 46 -73
133 -92 190 -7 22 -18 46 -23 54 -35 47 -60 202 -60 376 0 188 14 262 63 345
5 8 21 41 36 73 46 99 205 254 286 278 33 10 42 10 57 -4 36 -33 199 -105 277
-123 109 -26 319 -26 430 0 76 17 260 99 296 132 21 19 31 68 23 110 -5 26
-15 38 -47 54 -48 25 -72 21 -135 -21 -25 -17 -79 -42 -121 -56 -68 -24 -91
-27 -226 -27 -130 -1 -159 2 -220 22 -38 13 -81 30 -95 40 -14 9 -27 17 -30
17 -10 0 -140 106 -140 113 0 4 -16 24 -35 44 -19 20 -35 39 -35 42 0 4 -14
25 -30 48 -32 44 -70 155 -70 206 0 17 -4 34 -10 37 -13 8 -13 162 0 170 6 3
10 19 10 35 0 30 20 115 38 160 16 41 81 131 138 192 49 51 54 61 54 101 0 37
-6 51 -31 76 -45 45 -91 43 -144 -7 -46 -43 -115 -119 -115 -126 0 -3 -18 -31
-40 -62 -22 -32 -40 -63 -40 -70 0 -8 -11 -39 -25 -70 -14 -31 -25 -67 -25
-81 0 -13 -7 -38 -16 -55 -24 -46 -24 -336 0 -370 9 -12 16 -32 16 -45 0 -12
16 -56 35 -99 19 -42 35 -83 35 -90 0 -8 4 -14 9 -14 4 0 23 -24 42 -53 43
-67 43 -67 25 -67 -20 0 -118 -79 -181 -146 -70 -74 -116 -140 -154 -217 -18
-37 -37 -69 -42 -72 -5 -4 -9 -15 -9 -25 0 -37 -44 -53 -154 -58 -109 -5 -213
11 -331 49 -64 21 -248 109 -253 122 -2 4 -10 7 -18 7 -8 0 -17 7 -20 15 -4 8
-11 15 -18 15 -38 0 -242 190 -326 304 -19 26 -41 53 -48 61 -6 7 -12 19 -12
25 0 6 -13 31 -29 54 -34 48 -73 131 -90 191 -7 22 -16 49 -21 60 -63 155 -91
491 -55 655 8 36 14 79 15 95 0 17 6 41 13 55 7 14 19 45 26 70 26 87 67 186
81 195 6 3 10 15 10 26 0 11 7 22 15 25 8 4 15 12 15 20 0 17 43 84 95 149 66
84 244 255 265 255 9 0 50 -57 50 -70 0 -16 145 -164 177 -180 15 -8 41 -23
58 -35 84 -57 228 -95 360 -95 144 1 249 31 349 99 25 17 48 31 53 31 5 0 16
19 26 41 23 52 15 90 -25 124 -38 32 -87 33 -125 1 -64 -54 -173 -89 -278 -89
-121 0 -238 40 -319 109 -57 49 -146 155 -146 175 0 9 -6 22 -13 28 -8 6 -19
30 -26 53 -7 24 -17 51 -22 60 -5 10 -16 65 -25 123 -14 87 -15 119 -5 175 6
38 11 81 11 95 0 15 6 41 13 58 8 18 20 50 27 72 31 98 72 167 148 244 66 68
160 133 197 137 6 0 21 6 35 11 71 30 231 22 287 -13 63 -39 153 10 153 83 -1
25 -8 47 -23 63 -24 27 -77 64 -77 54 0 -4 -6 -2 -12 4 -50 41 -357 40 -407
-1 -8 -7 -17 -11 -20 -11 -22 5 -153 -62 -200 -102 l-43 -37 -32 17 c-43 23
-156 129 -200 189 -32 42 -46 68 -91 172 -7 17 -19 50 -25 75 -7 25 -16 56
-22 70 -29 74 -29 463 1 493 6 6 11 26 11 43 0 18 5 36 10 39 6 3 10 17 10 30
0 34 42 130 112 256 87 157 314 387 455 464 21 11 72 39 114 63 42 23 111 53
153 67 42 14 84 29 93 34 10 5 56 18 103 28 104 22 460 27 481 6 10 -10 8 -25
-6 -70 -11 -32 -24 -64 -30 -72 -6 -8 -10 -73 -9 -160 1 -133 3 -151 27 -208
30 -74 56 -110 99 -135 28 -18 33 -18 63 -4 34 16 85 75 85 98 0 7 -9 24 -20
38 -11 14 -20 32 -20 41 0 8 -4 19 -9 25 -4 5 -14 38 -20 73 -14 69 -2 178 25
229 8 15 14 31 14 35 0 12 51 78 80 105 19 17 107 65 140 77 3 1 13 5 24 10
26 11 177 12 201 1 11 -5 22 -10 25 -11 28 -10 51 -20 83 -37 29 -15 50 -19
80 -15 57 8 77 35 77 102 0 50 -3 56 -37 84 -21 17 -41 31 -46 31 -4 0 -24 7
-45 17 -20 9 -41 15 -46 14 -4 -1 -15 4 -24 11 -9 8 -56 14 -127 17 -96 3
-138 -2 -220 -22 -5 -1 -41 -17 -79 -35 -52 -24 -71 -29 -77 -20 -24 38 -21
276 3 322 6 11 19 53 29 93 18 77 54 155 95 210 13 17 24 35 24 40 0 25 226
253 251 253 4 0 36 18 70 40 95 59 130 77 200 101 35 12 70 26 77 32 6 5 12 6
12 2 0 -4 6 -3 13 3 15 13 192 50 292 62 121 15 359 5 460 -20z m22269 -5 c72
-14 136 -31 143 -37 7 -6 13 -7 13 -3 0 4 6 3 13 -2 6 -6 41 -20 76 -32 70
-24 105 -42 200 -101 34 -22 66 -40 70 -40 7 0 112 -90 146 -125 45 -48 105
-120 105 -128 0 -5 11 -23 24 -40 41 -55 77 -133 95 -210 10 -40 23 -82 29
-93 24 -46 27 -284 3 -322 -6 -9 -25 -4 -77 20 -38 18 -73 34 -79 35 -82 20
-124 25 -220 22 -71 -3 -118 -9 -127 -17 -9 -7 -20 -12 -24 -11 -5 1 -26 -5
-46 -14 -21 -10 -41 -17 -45 -17 -5 0 -25 -14 -46 -31 -34 -28 -37 -34 -37
-84 0 -67 20 -94 77 -102 30 -4 51 0 80 15 32 17 55 27 83 37 3 1 14 6 25 11
24 11 175 10 201 -1 11 -5 21 -9 24 -10 33 -12 121 -60 140 -77 29 -27 80 -93
80 -105 0 -4 6 -20 14 -35 27 -51 39 -160 25 -229 -6 -35 -16 -68 -20 -73 -5
-6 -9 -17 -9 -25 0 -9 -9 -27 -20 -41 -11 -14 -20 -31 -20 -38 0 -23 51 -82
85 -98 30 -14 35 -14 63 4 43 25 69 61 99 135 24 57 26 75 27 208 1 87 -3 152
-9 160 -6 8 -19 40 -30 72 -14 45 -16 60 -6 70 21 21 377 16 481 -6 47 -10 93
-23 103 -28 9 -5 51 -20 93 -34 42 -14 111 -44 153 -67 42 -24 93 -52 114 -63
141 -77 368 -307 455 -464 70 -126 112 -222 112 -256 0 -13 5 -27 10 -30 6 -3
10 -21 10 -39 0 -17 5 -37 11 -43 30 -30 30 -419 1 -493 -6 -14 -15 -45 -22
-70 -6 -25 -18 -58 -25 -75 -45 -104 -59 -130 -91 -172 -44 -60 -157 -166
-200 -189 l-32 -17 -43 37 c-45 38 -177 106 -209 107 -3 1 -9 4 -15 9 -17 14
-125 30 -200 30 -80 0 -183 -16 -202 -32 -7 -6 -13 -8 -13 -4 0 10 -53 -27
-77 -54 -15 -16 -22 -38 -23 -63 0 -73 90 -122 153 -83 56 35 216 43 287 13
14 -5 30 -11 35 -11 37 -4 131 -69 197 -137 76 -77 117 -146 148 -244 7 -22
19 -54 27 -72 7 -17 13 -43 13 -58 0 -14 5 -57 11 -95 10 -56 9 -88 -5 -175
-9 -58 -20 -113 -25 -123 -5 -9 -15 -36 -22 -60 -7 -23 -18 -47 -26 -53 -7 -6
-13 -19 -13 -28 0 -20 -89 -126 -146 -175 -44 -38 -123 -77 -194 -97 -126 -35
-312 1 -403 77 -38 32 -87 31 -125 -1 -40 -34 -48 -72 -25 -124 10 -22 21 -41
26 -41 5 0 28 -14 53 -31 25 -17 66 -40 92 -51 178 -79 472 -56 619 50 17 12
36 22 42 22 17 0 165 145 181 177 19 37 52 83 60 83 21 0 199 -171 265 -255
52 -65 95 -132 95 -149 0 -8 7 -16 15 -20 8 -3 15 -14 15 -25 0 -11 4 -23 10
-26 14 -9 55 -108 81 -195 7 -25 19 -56 26 -70 7 -14 13 -38 13 -55 1 -16 7
-59 15 -95 36 -164 8 -500 -55 -655 -5 -11 -14 -38 -21 -60 -17 -60 -56 -143
-90 -191 -16 -23 -29 -48 -29 -54 0 -6 -6 -18 -12 -25 -7 -8 -29 -35 -48 -61
-84 -114 -288 -304 -326 -304 -7 0 -14 -7 -18 -15 -3 -8 -12 -15 -20 -15 -8 0
-16 -3 -18 -7 -5 -13 -189 -101 -253 -122 -118 -38 -222 -54 -331 -49 -110 5
-154 21 -154 58 0 10 -4 21 -9 25 -5 3 -24 35 -42 72 -38 77 -84 143 -154 217
-63 67 -161 146 -181 146 -18 0 -18 0 25 68 19 28 38 52 42 52 5 0 9 6 9 14 0
7 16 48 35 90 19 43 35 87 35 99 0 13 7 33 16 45 24 34 24 324 0 370 -9 17
-16 42 -16 55 0 14 -11 50 -25 81 -14 31 -25 62 -25 70 0 7 -18 38 -40 70 -22
31 -40 59 -40 62 0 7 -69 83 -115 126 -53 50 -99 52 -144 7 -25 -25 -31 -39
-31 -76 0 -40 5 -50 54 -101 57 -61 122 -151 138 -192 18 -45 38 -130 38 -160
0 -16 5 -32 10 -35 6 -3 10 -42 10 -85 0 -43 -4 -82 -10 -85 -5 -3 -10 -20
-10 -37 0 -51 -38 -162 -70 -206 -16 -23 -30 -44 -30 -48 0 -3 -16 -22 -35
-42 -19 -20 -35 -40 -35 -44 0 -7 -130 -113 -140 -113 -3 0 -16 -8 -30 -17
-14 -10 -57 -27 -95 -40 -61 -20 -90 -23 -220 -22 -135 0 -158 3 -226 27 -42
14 -96 39 -121 56 -63 42 -87 46 -135 21 -31 -16 -42 -29 -47 -52 -8 -42 2
-93 23 -112 36 -33 220 -115 296 -132 111 -26 321 -26 430 0 78 18 241 90 277
123 15 14 24 14 57 4 81 -24 240 -179 286 -278 15 -32 31 -65 36 -73 49 -83
63 -157 63 -345 0 -174 -25 -329 -60 -376 -5 -8 -16 -32 -23 -54 -19 -57 -60
-144 -92 -190 -14 -22 -55 -83 -89 -135 -128 -192 -384 -451 -528 -531 -20
-12 -48 -29 -62 -39 -31 -22 -146 -80 -158 -80 -5 0 -26 -7 -46 -15 -20 -8
-37 -14 -39 -13 -2 2 -11 -3 -19 -10 -24 -19 -253 -60 -411 -74 -205 -18 -497
12 -612 62 -16 7 -33 13 -37 12 -13 -3 -228 109 -228 118 0 6 -5 10 -12 10
-17 0 -128 111 -128 128 0 7 -7 15 -15 18 -8 4 -15 13 -15 21 0 8 -9 27 -19
42 -11 15 -27 47 -37 72 -9 24 -22 51 -29 59 -6 8 -20 49 -29 90 -15 65 -17
128 -14 491 3 373 5 417 20 432 9 9 20 17 24 17 3 0 14 8 23 18 48 53 231 159
252 147 4 -3 10 -1 13 4 19 31 272 38 341 10 17 -7 32 -13 35 -14 153 -52 288
-166 356 -302 13 -25 28 -51 34 -58 25 -31 44 -134 46 -260 1 -71 5 -139 9
-150 7 -22 66 -65 90 -65 17 0 60 25 85 49 34 33 34 244 -1 379 -16 63 -29 97
-68 182 -13 26 -46 85 -51 90 -3 3 -21 25 -40 50 -79 103 -205 208 -296 246
-81 34 -89 37 -99 39 -5 0 -23 7 -40 14 -70 31 -410 23 -452 -11 -7 -5 -17 -7
-22 -4 -5 4 -12 2 -16 -4 -3 -5 -30 -17 -60 -25 -29 -9 -81 -34 -115 -55 -33
-22 -63 -40 -65 -40 -3 0 -5 673 -5 1495 0 822 3 1495 8 1495 4 -1 23 -14 42
-30 19 -17 40 -30 47 -30 6 0 16 -6 20 -14 8 -13 179 -101 198 -101 6 0 16 -4
22 -8 25 -15 166 -37 241 -37 82 0 195 20 240 43 15 7 61 30 102 51 42 20 91
51 110 68 19 17 44 38 55 47 56 45 159 182 192 254 10 23 17 27 35 21 13 -4
34 -15 47 -25 31 -25 163 -66 254 -80 90 -14 269 -6 364 16 236 55 534 299
537 440 1 59 -31 95 -87 95 -43 0 -107 -33 -107 -55 0 -21 -127 -146 -190
-188 -121 -80 -249 -112 -424 -105 -88 4 -125 11 -180 32 -198 76 -362 242
-416 419 -11 40 -25 86 -30 103 -13 40 -13 211 0 219 6 3 10 18 10 31 0 44 51
176 89 232 20 30 41 61 46 70 6 9 29 39 53 65 43 51 51 80 31 120 -19 37 -52
57 -96 57 -38 0 -47 -5 -95 -56 -96 -101 -170 -220 -197 -314 -7 -25 -17 -55
-22 -68 -5 -13 -9 -33 -9 -45 0 -13 -6 -29 -12 -36 -9 -8 -13 -53 -12 -159 1
-124 5 -155 23 -202 11 -30 21 -64 21 -75 0 -11 12 -42 25 -70 14 -27 25 -54
25 -58 0 -12 114 -168 139 -191 29 -26 27 -41 -19 -120 -22 -37 -40 -72 -40
-76 0 -12 -119 -128 -146 -143 -12 -6 -51 -28 -86 -48 -80 -45 -136 -59 -240
-59 -109 1 -153 12 -267 68 -75 37 -112 64 -178 127 -134 131 -123 41 -123
948 l0 777 48 0 c27 0 51 -3 54 -6 7 -7 227 -7 248 0 8 2 38 7 65 11 73 9 204
44 239 63 17 9 33 16 36 17 3 0 29 13 58 28 60 30 146 94 213 158 49 47 159
191 159 208 0 6 9 26 20 46 11 20 20 41 20 47 0 6 9 30 19 52 25 53 31 90 38
206 7 122 -17 227 -78 353 -11 22 -19 43 -19 49 0 9 -40 63 -90 121 -36 42
-105 87 -132 87 -13 0 -39 -13 -58 -29 -32 -26 -35 -34 -35 -79 0 -48 3 -54
53 -104 46 -46 122 -174 122 -206 0 -5 7 -23 15 -38 10 -20 15 -60 15 -129 0
-84 -4 -110 -26 -165 -50 -125 -80 -174 -149 -246 -182 -187 -355 -251 -661
-242 -82 2 -155 7 -162 12 -9 5 -12 161 -12 698 0 604 2 700 16 757 9 36 22
73 29 81 7 8 20 36 30 63 10 26 22 47 26 47 5 0 9 7 9 15 0 8 39 54 88 102 77
79 100 95 202 145 180 88 286 109 530 103 114 -3 189 -11 284 -30z m-1444
-3885 l0 -2790 -9995 0 -9995 0 0 2790 0 2790 9995 0 9995 0 0 -2790z m-12139
-3093 c31 -15 72 -43 93 -63 l36 -35 -30 -42 c-17 -23 -39 -53 -49 -66 l-19
-25 -32 28 c-52 43 -91 59 -150 60 -75 1 -126 -27 -165 -89 -27 -44 -30 -56
-30 -134 0 -75 3 -92 27 -131 62 -107 203 -125 309 -41 21 17 40 31 43 31 2 0
26 -30 51 -67 l47 -68 -46 -42 c-86 -77 -214 -107 -345 -79 -88 18 -143 49
-200 111 -163 177 -118 512 86 632 73 42 120 53 223 50 80 -2 105 -7 151 -30z
m5802 -5 c113 -56 176 -149 198 -294 29 -186 -58 -374 -204 -438 -107 -47
-252 -47 -362 0 -229 98 -287 478 -102 664 83 83 153 107 304 102 91 -2 109
-6 166 -34z m-8543 -122 l0 -150 140 0 140 0 0 150 0 150 100 0 100 0 0 -390
0 -390 -100 0 -100 0 0 160 0 160 -140 0 -140 0 0 -160 0 -160 -105 0 -105 0
0 374 c0 206 3 381 6 390 5 13 24 16 105 16 l99 0 0 -150z m1611 -234 c71
-208 129 -382 129 -387 0 -5 -47 -9 -105 -9 l-104 0 -21 70 -21 71 -137 -3
-136 -3 -20 -67 -19 -68 -98 0 c-55 0 -99 2 -99 5 0 5 244 730 255 758 7 16
20 17 127 15 l121 -3 128 -379z m1989 238 l0 -146 112 146 112 146 114 0 c67
0 112 -4 110 -9 -1 -6 -61 -78 -131 -161 l-129 -152 133 -221 c72 -122 134
-225 136 -229 2 -5 -48 -8 -111 -8 l-116 0 -42 75 c-24 42 -62 109 -86 150
l-43 75 -29 -34 c-30 -33 -30 -35 -30 -150 l0 -116 -105 0 -105 0 0 374 c0
206 3 381 6 390 5 13 24 16 105 16 l99 0 0 -146z m1501 -238 c71 -208 129
-382 129 -387 0 -5 -47 -9 -105 -9 l-104 0 -21 70 -21 71 -137 -3 -136 -3 -20
-67 -19 -68 -98 0 c-55 0 -99 2 -99 5 0 5 244 730 255 758 7 16 20 17 127 15
l121 -3 128 -379z m1114 361 c4 -13 5 -48 3 -78 l-3 -54 -102 -3 -103 -3 0
-309 0 -310 -105 0 -105 0 0 310 0 309 -102 3 -103 3 -3 54 c-2 30 -1 65 3 78
l5 23 305 0 305 0 5 -23z m725 -127 l0 -150 140 0 140 0 0 150 0 150 100 0
100 0 0 -390 0 -390 -100 0 -100 0 0 160 0 160 -140 0 -140 0 0 -160 0 -160
-105 0 -105 0 0 374 c0 206 3 381 6 390 5 13 24 16 105 16 l99 0 0 -150z
m2690 -77 l135 -227 3 227 2 227 95 0 95 0 0 -390 0 -390 -98 0 -97 0 -140
236 -140 237 -3 -237 -2 -236 -100 0 -100 0 0 374 c0 206 3 381 6 390 5 13 24
16 108 16 l101 -1 135 -226z"/>
<path d="M4287 5319 c-61 -31 -75 -98 -32 -161 14 -20 25 -41 25 -46 0 -5 14
-36 32 -68 32 -58 32 -61 33 -199 0 -140 0 -140 -34 -210 -19 -38 -38 -71 -43
-73 -4 -2 -8 -8 -8 -13 0 -17 -83 -99 -141 -139 -90 -62 -173 -85 -304 -84
-97 0 -117 3 -175 28 -35 15 -80 41 -99 57 -20 16 -40 29 -46 29 -12 0 -85 72
-85 84 0 4 -11 22 -24 39 -14 18 -38 61 -54 97 -31 69 -57 90 -110 90 -54 -1
-108 -69 -97 -122 4 -18 11 -37 14 -43 4 -5 14 -26 21 -45 20 -51 82 -136 151
-207 33 -35 61 -63 64 -63 2 0 32 -19 67 -43 121 -82 222 -111 383 -109 215 2
361 61 514 206 76 73 151 176 151 208 0 5 14 42 32 81 30 70 31 76 32 217 0
141 -1 149 -34 240 -38 107 -41 112 -93 193 -24 36 -44 57 -57 57 -10 0 -22 5
-25 10 -8 13 -12 12 -58 -11z"/>
<path d="M25665 5330 c-3 -5 -15 -10 -25 -10 -13 0 -33 -21 -57 -57 -52 -81
-55 -86 -93 -193 -33 -91 -34 -99 -34 -240 1 -141 2 -147 32 -217 18 -39 32
-76 32 -81 0 -32 75 -135 151 -208 153 -145 299 -204 514 -206 161 -2 262 27
383 109 35 24 65 43 67 43 3 0 31 28 64 63 69 71 131 156 151 207 7 19 17 40
21 45 3 6 10 25 14 43 11 53 -43 121 -97 122 -53 0 -79 -21 -110 -90 -16 -36
-40 -79 -54 -97 -13 -17 -24 -36 -24 -40 0 -12 -73 -83 -86 -83 -5 0 -25 -13
-45 -29 -19 -16 -64 -42 -99 -57 -58 -25 -78 -28 -175 -28 -131 -1 -214 22
-304 84 -58 40 -141 122 -141 139 0 5 -4 11 -8 13 -5 2 -24 35 -43 73 -34 70
-34 70 -34 210 1 138 1 141 33 199 18 32 32 63 32 68 0 5 11 26 25 46 44 65
29 130 -36 162 -50 23 -46 23 -54 10z"/>
<path d="M12510 6221 l0 -2271 520 0 520 0 2 1150 3 1150 1480 -1231 c814
-677 1483 -1233 1488 -1236 4 -2 7 1015 7 2261 l0 2266 -525 0 -525 0 -2
-1151 -3 -1151 -1472 1235 c-809 679 -1476 1238 -1482 1242 -8 4 -11 -651 -11
-2264z"/>
<path d="M5470 6210 l0 -2260 520 0 520 0 2 1218 3 1218 634 -458 c494 -356
637 -455 650 -448 9 5 295 211 636 458 l620 448 3 -1218 2 -1218 520 0 520 0
0 2260 c0 1399 -4 2260 -9 2260 -7 0 -2133 -1612 -2296 -1741 -6 -4 -489 356
-1160 867 -633 480 -1153 874 -1157 874 -5 0 -8 -1017 -8 -2260z"/>
<path d="M10790 6130 l0 -2180 520 0 520 0 0 2180 0 2180 -520 0 -520 0 0
-2180z"/>
<path d="M20480 6129 l0 -2180 1008 4 c1092 4 1073 3 1336 62 676 152 1257
617 1527 1225 119 269 174 510 186 815 26 693 -264 1322 -807 1756 -355 284
-765 444 -1245 489 -65 6 -495 10 -1057 10 l-948 0 0 -2181z m2045 1192 c501
-111 856 -489 929 -992 89 -605 -239 -1164 -792 -1349 -169 -57 -218 -61 -699
-67 l-443 -5 0 1222 0 1222 453 -5 c420 -4 459 -6 552 -26z"/>
<path d="M18255 7001 c-335 -62 -610 -212 -856 -469 -385 -400 -523 -991 -358
-1527 164 -532 617 -942 1189 -1074 358 -83 780 -37 1124 123 167 78 338 197
442 307 42 45 144 176 167 215 6 11 -739 596 -766 601 -7 2 -30 -25 -52 -58
-53 -81 -132 -150 -219 -193 -78 -38 -210 -69 -275 -64 -41 3 -37 6 679 518
l720 515 -6 35 c-9 57 -95 248 -156 345 -115 184 -282 357 -461 479 -82 55
-281 154 -377 186 -169 57 -264 72 -485 76 -173 3 -228 0 -310 -15z m550 -182
c375 -76 704 -297 912 -613 39 -59 126 -228 120 -232 -1 -1 -366 -263 -812
-584 -445 -320 -811 -587 -813 -593 -7 -33 128 -89 260 -108 244 -36 520 34
691 176 41 34 72 53 80 48 26 -16 466 -354 471 -362 9 -13 -162 -172 -241
-224 -158 -105 -365 -189 -566 -229 -151 -31 -456 -33 -587 -4 -314 68 -548
193 -761 405 -223 224 -350 472 -395 772 -30 205 -10 412 61 626 111 334 367
633 684 796 158 82 312 127 511 151 73 9 288 -5 385 -25z"/>
<path d="M18412 6219 c-146 -22 -315 -109 -418 -214 -163 -167 -247 -444 -201
-660 19 -90 55 -185 72 -192 14 -5 1195 832 1195 847 0 5 -24 29 -52 55 -61
53 -206 128 -293 150 -77 20 -222 27 -303 14z m286 -195 c28 -9 52 -20 52 -25
0 -4 -177 -134 -392 -289 l-393 -282 -3 50 c-6 105 50 261 128 356 121 147
283 220 465 212 50 -2 114 -12 143 -22z"/>
<path d="M18379 2887 c-19 -12 -45 -43 -59 -67 -22 -39 -25 -57 -25 -140 0
-83 3 -101 25 -139 30 -53 63 -79 116 -91 80 -18 151 15 194 91 22 38 25 56
25 139 0 83 -3 101 -25 140 -37 65 -79 90 -155 90 -48 0 -70 -5 -96 -23z"/>
<path d="M11432 2735 c-23 -72 -42 -134 -42 -138 0 -4 39 -7 86 -7 84 0 85 0
78 23 -4 12 -23 74 -44 137 l-37 115 -41 -130z"/>
<path d="M14922 2735 c-23 -72 -42 -134 -42 -138 0 -4 39 -7 86 -7 84 0 85 0
78 23 -4 12 -23 74 -44 137 l-37 115 -41 -130z"/>
</g>
</svg>
